<mxfile host="app.diagrams.net" modified="2023-09-13T13:51:05.745Z" agent="Mozilla/5.0 (Windows NT 10.0; Win64; x64) AppleWebKit/537.36 (KHTML, like Gecko) Chrome/116.0.0.0 Safari/537.36" etag="HfH6CP4LVW7X48ceIQSn" version="21.7.5" type="device">
  <diagram name="Trang-1" id="GVUq3gVxBdhi_4rGF5pl">
    <mxGraphModel dx="880" dy="1647" grid="1" gridSize="10" guides="1" tooltips="1" connect="1" arrows="1" fold="1" page="1" pageScale="1" pageWidth="827" pageHeight="1169" math="0" shadow="0">
      <root>
        <mxCell id="0" />
        <mxCell id="1" parent="0" />
        <mxCell id="a0JtkpDmc2-GjDZmlCLz-4" style="edgeStyle=orthogonalEdgeStyle;rounded=0;orthogonalLoop=1;jettySize=auto;html=1;exitX=0.5;exitY=1;exitDx=0;exitDy=0;exitPerimeter=0;entryX=0.5;entryY=0;entryDx=0;entryDy=0;" edge="1" parent="1" source="a0JtkpDmc2-GjDZmlCLz-2" target="a0JtkpDmc2-GjDZmlCLz-3">
          <mxGeometry relative="1" as="geometry" />
        </mxCell>
        <mxCell id="a0JtkpDmc2-GjDZmlCLz-2" value="start" style="strokeWidth=2;html=1;shape=mxgraph.flowchart.start_2;whiteSpace=wrap;" vertex="1" parent="1">
          <mxGeometry x="360" width="100" height="100" as="geometry" />
        </mxCell>
        <mxCell id="a0JtkpDmc2-GjDZmlCLz-6" style="edgeStyle=orthogonalEdgeStyle;rounded=0;orthogonalLoop=1;jettySize=auto;html=1;exitX=0.5;exitY=1;exitDx=0;exitDy=0;entryX=0.5;entryY=0;entryDx=0;entryDy=0;entryPerimeter=0;" edge="1" parent="1" source="a0JtkpDmc2-GjDZmlCLz-3" target="a0JtkpDmc2-GjDZmlCLz-5">
          <mxGeometry relative="1" as="geometry" />
        </mxCell>
        <mxCell id="a0JtkpDmc2-GjDZmlCLz-3" value="a, b" style="shape=parallelogram;html=1;strokeWidth=2;perimeter=parallelogramPerimeter;whiteSpace=wrap;rounded=1;arcSize=12;size=0.23;" vertex="1" parent="1">
          <mxGeometry x="360" y="150" width="100" height="60" as="geometry" />
        </mxCell>
        <mxCell id="a0JtkpDmc2-GjDZmlCLz-8" style="edgeStyle=orthogonalEdgeStyle;rounded=0;orthogonalLoop=1;jettySize=auto;html=1;exitX=0;exitY=0.5;exitDx=0;exitDy=0;exitPerimeter=0;entryX=1;entryY=0.5;entryDx=0;entryDy=0;entryPerimeter=0;" edge="1" parent="1" source="a0JtkpDmc2-GjDZmlCLz-5" target="a0JtkpDmc2-GjDZmlCLz-7">
          <mxGeometry relative="1" as="geometry" />
        </mxCell>
        <mxCell id="a0JtkpDmc2-GjDZmlCLz-9" value="Yes" style="edgeLabel;html=1;align=center;verticalAlign=middle;resizable=0;points=[];" vertex="1" connectable="0" parent="a0JtkpDmc2-GjDZmlCLz-8">
          <mxGeometry x="-0.081" y="-1" relative="1" as="geometry">
            <mxPoint as="offset" />
          </mxGeometry>
        </mxCell>
        <mxCell id="a0JtkpDmc2-GjDZmlCLz-24" style="edgeStyle=orthogonalEdgeStyle;rounded=0;orthogonalLoop=1;jettySize=auto;html=1;exitX=1;exitY=0.5;exitDx=0;exitDy=0;exitPerimeter=0;entryX=0;entryY=0.5;entryDx=0;entryDy=0;" edge="1" parent="1" source="a0JtkpDmc2-GjDZmlCLz-5" target="a0JtkpDmc2-GjDZmlCLz-22">
          <mxGeometry relative="1" as="geometry" />
        </mxCell>
        <mxCell id="a0JtkpDmc2-GjDZmlCLz-27" value="No" style="edgeLabel;html=1;align=center;verticalAlign=middle;resizable=0;points=[];" vertex="1" connectable="0" parent="a0JtkpDmc2-GjDZmlCLz-24">
          <mxGeometry x="-0.15" relative="1" as="geometry">
            <mxPoint as="offset" />
          </mxGeometry>
        </mxCell>
        <mxCell id="a0JtkpDmc2-GjDZmlCLz-5" value="a = 0" style="strokeWidth=2;html=1;shape=mxgraph.flowchart.decision;whiteSpace=wrap;" vertex="1" parent="1">
          <mxGeometry x="360" y="260" width="100" height="100" as="geometry" />
        </mxCell>
        <mxCell id="a0JtkpDmc2-GjDZmlCLz-11" style="edgeStyle=orthogonalEdgeStyle;rounded=0;orthogonalLoop=1;jettySize=auto;html=1;exitX=0.5;exitY=1;exitDx=0;exitDy=0;exitPerimeter=0;entryX=0.5;entryY=0;entryDx=0;entryDy=0;" edge="1" parent="1" source="a0JtkpDmc2-GjDZmlCLz-7" target="a0JtkpDmc2-GjDZmlCLz-10">
          <mxGeometry relative="1" as="geometry" />
        </mxCell>
        <mxCell id="a0JtkpDmc2-GjDZmlCLz-12" value="Yes" style="edgeLabel;html=1;align=center;verticalAlign=middle;resizable=0;points=[];" vertex="1" connectable="0" parent="a0JtkpDmc2-GjDZmlCLz-11">
          <mxGeometry x="-0.16" relative="1" as="geometry">
            <mxPoint as="offset" />
          </mxGeometry>
        </mxCell>
        <mxCell id="a0JtkpDmc2-GjDZmlCLz-14" style="edgeStyle=orthogonalEdgeStyle;rounded=0;orthogonalLoop=1;jettySize=auto;html=1;exitX=0;exitY=0.5;exitDx=0;exitDy=0;exitPerimeter=0;" edge="1" parent="1" source="a0JtkpDmc2-GjDZmlCLz-7" target="a0JtkpDmc2-GjDZmlCLz-13">
          <mxGeometry relative="1" as="geometry" />
        </mxCell>
        <mxCell id="a0JtkpDmc2-GjDZmlCLz-15" value="No" style="edgeLabel;html=1;align=center;verticalAlign=middle;resizable=0;points=[];" vertex="1" connectable="0" parent="a0JtkpDmc2-GjDZmlCLz-14">
          <mxGeometry x="-0.0518" y="1" relative="1" as="geometry">
            <mxPoint as="offset" />
          </mxGeometry>
        </mxCell>
        <mxCell id="a0JtkpDmc2-GjDZmlCLz-7" value="b = 0" style="strokeWidth=2;html=1;shape=mxgraph.flowchart.decision;whiteSpace=wrap;" vertex="1" parent="1">
          <mxGeometry x="200" y="260" width="100" height="100" as="geometry" />
        </mxCell>
        <mxCell id="a0JtkpDmc2-GjDZmlCLz-10" value="Pt vo so&amp;nbsp;&lt;br&gt;nghiem" style="shape=parallelogram;html=1;strokeWidth=2;perimeter=parallelogramPerimeter;whiteSpace=wrap;rounded=1;arcSize=12;size=0.23;" vertex="1" parent="1">
          <mxGeometry x="200" y="410" width="100" height="60" as="geometry" />
        </mxCell>
        <mxCell id="a0JtkpDmc2-GjDZmlCLz-13" value="Pt vo nghiem" style="shape=parallelogram;html=1;strokeWidth=2;perimeter=parallelogramPerimeter;whiteSpace=wrap;rounded=1;arcSize=12;size=0.23;" vertex="1" parent="1">
          <mxGeometry x="40" y="280" width="100" height="60" as="geometry" />
        </mxCell>
        <mxCell id="a0JtkpDmc2-GjDZmlCLz-26" style="edgeStyle=orthogonalEdgeStyle;rounded=0;orthogonalLoop=1;jettySize=auto;html=1;exitX=0.5;exitY=1;exitDx=0;exitDy=0;entryX=0.5;entryY=0;entryDx=0;entryDy=0;" edge="1" parent="1" source="a0JtkpDmc2-GjDZmlCLz-22" target="a0JtkpDmc2-GjDZmlCLz-25">
          <mxGeometry relative="1" as="geometry" />
        </mxCell>
        <mxCell id="a0JtkpDmc2-GjDZmlCLz-22" value="x = -b/a" style="rounded=1;whiteSpace=wrap;html=1;absoluteArcSize=1;arcSize=14;strokeWidth=2;" vertex="1" parent="1">
          <mxGeometry x="540" y="260" width="100" height="100" as="geometry" />
        </mxCell>
        <mxCell id="a0JtkpDmc2-GjDZmlCLz-25" value="Hien thi x" style="shape=parallelogram;html=1;strokeWidth=2;perimeter=parallelogramPerimeter;whiteSpace=wrap;rounded=1;arcSize=12;size=0.23;" vertex="1" parent="1">
          <mxGeometry x="540" y="410" width="100" height="60" as="geometry" />
        </mxCell>
      </root>
    </mxGraphModel>
  </diagram>
</mxfile>
